<svg width="122" height="18" viewBox="0 0 122 18" fill="none" xmlns="http://www.w3.org/2000/svg">
<path d="M7.01085 13.8051C3.19489 13.8051 0.440918 10.9432 0.440918 7.25319C0.440918 3.58123 3.19489 0.71926 7.01085 0.71926C9.81882 0.71926 12.2308 2.44724 13.0048 4.98522C13.0768 5.27321 12.9148 5.45321 12.6268 5.45321H10.8808C10.6468 5.45321 10.5028 5.34521 10.3948 5.12921C9.83682 3.90523 8.52283 3.13123 7.01085 3.13123C4.54488 3.13123 2.92489 4.84122 2.92489 7.25319C2.92489 9.68317 4.54488 11.3931 7.01085 11.3931C8.52283 11.3931 9.83682 10.6192 10.3948 9.39517C10.5028 9.17917 10.6468 9.05317 10.8808 9.05317H12.6268C12.9148 9.05317 13.0768 9.23317 13.0048 9.50317C12.2488 12.0411 9.83682 13.8051 7.01085 13.8051Z" fill="#4C4C4C"/>
<path d="M14.8759 13.5531C14.6059 13.5531 14.4439 13.4091 14.4439 13.1391V1.02526C14.4439 0.75526 14.6059 0.593262 14.8759 0.593262H16.3519C16.6219 0.593262 16.7659 0.75526 16.7659 1.02526V13.1391C16.7659 13.4091 16.6219 13.5531 16.3519 13.5531H14.8759Z" fill="#4C4C4C"/>
<path d="M19.3231 3.29323C19.0531 3.29323 18.8911 3.14923 18.8911 2.87924V1.38525C18.8911 1.11526 19.0531 0.953258 19.3231 0.953258H20.7991C21.0691 0.953258 21.2131 1.11526 21.2131 1.38525V2.87924C21.2131 3.14923 21.0691 3.29323 20.7991 3.29323H19.3231ZM19.3231 13.5531C19.0531 13.5531 18.8911 13.4091 18.8911 13.1391V4.98522C18.8911 4.71522 19.0531 4.55322 19.3231 4.55322H20.7991C21.0691 4.55322 21.2131 4.71522 21.2131 4.98522V13.1391C21.2131 13.4091 21.0691 13.5531 20.7991 13.5531H19.3231Z" fill="#4C4C4C"/>
<path d="M32.4643 4.31922C34.1743 4.31922 35.2722 5.41721 35.2722 7.48719V13.1391C35.2722 13.4091 35.1102 13.5531 34.8402 13.5531H33.3823C33.0943 13.5531 32.9503 13.4091 32.9503 13.1391V7.66719C32.9503 6.7672 32.4103 6.4612 31.7983 6.4612C31.1683 6.4612 30.4663 6.8212 30.4663 7.99118V13.1391C30.4663 13.4091 30.3223 13.5531 30.0343 13.5531H28.5763C28.3063 13.5531 28.1443 13.4091 28.1443 13.1391V7.66719C28.1443 6.7672 27.6223 6.4612 26.9923 6.4612C26.3623 6.4612 25.6603 6.8212 25.6603 7.99118V13.1391C25.6603 13.4091 25.5163 13.5531 25.2463 13.5531H23.7704C23.5004 13.5531 23.3384 13.4091 23.3384 13.1391V4.98522C23.3384 4.71522 23.5004 4.55322 23.7704 4.55322H25.2463C25.5163 4.55322 25.6603 4.71522 25.6603 4.98522V5.43521C26.1463 4.71522 26.9203 4.31922 27.8203 4.31922C28.7563 4.31922 29.5303 4.73322 29.9983 5.50721C30.6103 4.73322 31.4203 4.31922 32.4643 4.31922Z" fill="#4C4C4C"/>
<path d="M40.755 4.31922C42.735 4.31922 44.409 5.50721 44.409 7.84719V13.1391C44.409 13.4091 44.265 13.5711 43.977 13.5711H42.573C42.303 13.5711 42.141 13.4091 42.141 13.1391V12.7791C41.619 13.4091 40.845 13.8051 39.711 13.8051C38.109 13.8051 36.6691 12.8691 36.6691 10.9792C36.6691 9.08917 38.109 8.13518 39.711 8.13518C40.845 8.13518 41.619 8.47718 42.141 8.94517V7.97318C42.141 6.91119 41.601 6.4612 40.755 6.4612C40.071 6.4612 39.567 6.7492 39.423 7.23519C39.315 7.48719 39.225 7.61319 38.973 7.61319H37.533C37.263 7.61319 37.083 7.46919 37.101 7.18119C37.335 5.32721 38.901 4.31922 40.755 4.31922ZM40.485 12.0951C41.511 12.0951 42.141 11.6271 42.141 10.9792C42.141 10.2772 41.511 9.86316 40.485 9.86316C39.477 9.86316 38.991 10.3312 38.991 10.9792C38.991 11.6271 39.477 12.0951 40.485 12.0951Z" fill="#4C4C4C"/>
<path d="M50.5251 4.55322C50.8131 4.55322 50.9571 4.71522 50.9571 4.98522V6.3712C50.9571 6.6412 50.8131 6.7852 50.5251 6.7852H49.4091V13.1391C49.4091 13.4091 49.2651 13.5531 48.9771 13.5531H47.5191C47.2491 13.5531 47.0871 13.4091 47.0871 13.1391V6.7852H45.9712C45.6832 6.7852 45.5392 6.6412 45.5392 6.3712V4.98522C45.5392 4.71522 45.6832 4.55322 45.9712 4.55322H47.0871V2.10525C47.0871 1.83525 47.2491 1.67325 47.5191 1.67325H48.9771C49.2651 1.67325 49.4091 1.83525 49.4091 2.10525V4.55322H50.5251Z" fill="#4C4C4C"/>
<path d="M56.3803 4.31922C59.0442 4.31922 60.8802 6.4072 60.8802 9.07117C60.8802 9.26917 60.8622 9.44917 60.8442 9.62917C60.8262 9.89916 60.6462 10.0252 60.3942 10.0252H54.0223C54.3463 11.3031 55.3183 11.8791 56.4703 11.8791C57.1542 11.8791 57.7482 11.6091 58.1082 11.2311C58.2702 11.0692 58.4142 10.9792 58.6302 10.9792H60.0702C60.3942 10.9792 60.5562 11.1771 60.4302 11.4471C59.7462 12.9591 58.2702 13.8051 56.4343 13.8051C53.5003 13.8051 51.6103 11.7531 51.6103 9.05317C51.6103 6.3892 53.5543 4.31922 56.3803 4.31922ZM54.0223 8.18918H58.5582C58.2882 6.91119 57.3342 6.4072 56.3623 6.4072C55.1383 6.4072 54.2923 7.07319 54.0223 8.18918Z" fill="#4C4C4C"/>
<path d="M77.4431 13.0851C77.5331 13.3911 77.3891 13.5531 77.0831 13.5531H75.2831C75.0312 13.5531 74.8692 13.4451 74.7972 13.2111L74.1852 11.3031H69.3432L68.7492 13.2111C68.6772 13.4451 68.4972 13.5531 68.2632 13.5531H66.4632C66.1572 13.5531 65.9952 13.3911 66.1032 13.0851L70.1172 1.31325C70.1892 1.07926 70.3692 0.953258 70.6032 0.953258H72.9432C73.1772 0.953258 73.3572 1.07926 73.4292 1.31325L77.4431 13.0851ZM70.0992 8.98117H73.4472L71.7732 3.70723L70.0992 8.98117Z" fill="#4C4C4C"/>
<path d="M83.4788 4.31922C85.1528 4.31922 86.4128 5.59721 86.4128 7.81119V13.1391C86.4128 13.4091 86.2508 13.5531 85.9808 13.5531H84.5048C84.2348 13.5531 84.0908 13.4091 84.0908 13.1391V7.99118C84.0908 6.94719 83.4788 6.4612 82.6508 6.4612C81.7508 6.4612 81.0309 7.00119 81.0309 8.35118V13.1391C81.0309 13.4091 80.8869 13.5531 80.5989 13.5531H79.1409C78.8709 13.5531 78.7089 13.4091 78.7089 13.1391V4.98522C78.7089 4.71522 78.8709 4.55322 79.1409 4.55322H80.5989C80.8869 4.55322 81.0309 4.71522 81.0309 4.98522V5.48921C81.5348 4.73322 82.3628 4.31922 83.4788 4.31922Z" fill="#4C4C4C"/>
<path d="M97.0188 4.55322C97.3068 4.55322 97.4508 4.71522 97.4508 4.98522V13.1391C97.4508 16.0911 95.1108 17.4051 92.8608 17.4051C90.6828 17.4051 88.6489 16.3071 88.3789 14.2551C88.3609 13.9671 88.5409 13.8051 88.8108 13.8051H90.2868C90.5388 13.8051 90.6648 13.9491 90.7548 14.1831C90.9528 14.8131 91.6728 15.3351 92.8608 15.3351C94.3008 15.3351 95.1828 14.5431 95.1828 13.1391V12.1851C94.5348 13.0131 93.5628 13.5351 92.2128 13.5351C89.8008 13.5351 87.8209 11.4651 87.8209 8.92717C87.8209 6.3892 89.8008 4.31922 92.2128 4.31922C93.5628 4.31922 94.5348 4.84122 95.1828 5.66921V4.98522C95.1828 4.71522 95.3448 4.55322 95.6148 4.55322H97.0188ZM92.6628 11.3751C94.1208 11.3751 95.1828 10.3492 95.1828 8.92717C95.1828 7.48719 94.1208 6.4612 92.6628 6.4612C91.2048 6.4612 90.1428 7.48719 90.1428 8.92717C90.1428 10.3492 91.2048 11.3751 92.6628 11.3751Z" fill="#4C4C4C"/>
<path d="M103.858 4.31922C106.522 4.31922 108.358 6.4072 108.358 9.07117C108.358 9.26917 108.34 9.44917 108.322 9.62917C108.304 9.89916 108.124 10.0252 107.872 10.0252H101.5C101.824 11.3031 102.796 11.8791 103.948 11.8791C104.632 11.8791 105.226 11.6091 105.586 11.2311C105.748 11.0692 105.892 10.9792 106.108 10.9792H107.548C107.872 10.9792 108.034 11.1771 107.908 11.4471C107.224 12.9591 105.748 13.8051 103.912 13.8051C100.978 13.8051 99.0883 11.7531 99.0883 9.05317C99.0883 6.3892 101.032 4.31922 103.858 4.31922ZM101.5 8.18918H106.036C105.766 6.91119 104.812 6.4072 103.84 6.4072C102.616 6.4072 101.77 7.07319 101.5 8.18918Z" fill="#4C4C4C"/>
<path d="M110.359 13.5531C110.089 13.5531 109.927 13.4091 109.927 13.1391V1.02526C109.927 0.75526 110.089 0.593262 110.359 0.593262H111.835C112.105 0.593262 112.249 0.75526 112.249 1.02526V13.1391C112.249 13.4091 112.105 13.5531 111.835 13.5531H110.359Z" fill="#4C4C4C"/>
<path d="M116.427 7.18119C116.427 8.74718 121.286 7.46919 121.286 10.9432C121.286 12.8691 119.63 13.8051 117.632 13.8051C115.797 13.8051 114.231 12.9411 114.033 11.1412C113.997 10.8532 114.177 10.6912 114.447 10.6912H115.887C116.139 10.6912 116.229 10.8352 116.337 11.0692C116.499 11.5371 116.984 11.7531 117.632 11.7531C118.496 11.7531 118.964 11.4651 118.964 10.9432C118.964 9.39517 114.105 10.6372 114.105 7.18119C114.105 5.27321 115.761 4.31922 117.632 4.31922C119.324 4.31922 120.854 5.16521 121.07 6.98319C121.106 7.27119 120.926 7.43319 120.656 7.43319H119.216C118.964 7.43319 118.856 7.28919 118.748 7.03719C118.622 6.5872 118.172 6.3532 117.632 6.3532C116.894 6.3532 116.427 6.6592 116.427 7.18119Z" fill="#4C4C4C"/>
</svg>
