<svg width="24" height="24" viewBox="0 0 24 24" fill="none" xmlns="http://www.w3.org/2000/svg">
<mask id="mask0_601_1473" style="mask-type:alpha" maskUnits="userSpaceOnUse" x="0" y="0" width="24" height="24">
<rect width="24" height="24" fill="#D9D9D9"/>
</mask>
<g mask="url(#mask0_601_1473)">
<path d="M11.9999 14.3732C11.8922 14.3732 11.7928 14.3555 11.7018 14.3203C11.6108 14.285 11.5217 14.2238 11.4345 14.1366L7.04606 9.74816C6.95247 9.65457 6.90247 9.53983 6.89606 9.40393C6.88964 9.26803 6.93964 9.14688 7.04606 9.04046C7.15247 8.93406 7.27042 8.88086 7.3999 8.88086C7.52939 8.88086 7.64734 8.93406 7.75375 9.04046L11.9999 13.2866L16.2461 9.04046C16.3396 8.94688 16.4544 8.89688 16.5903 8.89046C16.7262 8.88406 16.8473 8.93406 16.9538 9.04046C17.0602 9.14688 17.1134 9.26483 17.1134 9.39431C17.1134 9.52381 17.0602 9.64176 16.9538 9.74816L12.5653 14.1366C12.4781 14.2238 12.389 14.285 12.298 14.3203C12.207 14.3555 12.1076 14.3732 11.9999 14.3732Z" fill="#484644"/>
</g>
</svg>
