<svg width="24" height="24" viewBox="0 0 24 24" fill="none" xmlns="http://www.w3.org/2000/svg">
<mask id="mask0_601_188" style="mask-type:alpha" maskUnits="userSpaceOnUse" x="0" y="0" width="24" height="24">
<rect width="24" height="24" fill="#D9D9D9"/>
</mask>
<g mask="url(#mask0_601_188)">
<path d="M19.4846 20.1537L13.223 13.8921C12.723 14.3178 12.148 14.6473 11.498 14.8806C10.848 15.1139 10.1948 15.2306 9.53839 15.2306C7.93673 15.2306 6.58118 14.6762 5.47177 13.5674C4.36233 12.4586 3.80762 11.1037 3.80762 9.50294C3.80762 7.90214 4.36203 6.54629 5.47084 5.43539C6.57966 4.32449 7.93447 3.76904 9.53527 3.76904C11.1361 3.76904 12.4919 4.32375 13.6028 5.43317C14.7137 6.54258 15.2692 7.89814 15.2692 9.49982C15.2692 10.1947 15.1461 10.8671 14.8999 11.5171C14.6538 12.1671 14.3307 12.7229 13.9307 13.1844L20.1923 19.446L19.4846 20.1537ZM9.53839 14.2306C10.8653 14.2306 11.9855 13.7739 12.899 12.8604C13.8124 11.9469 14.2692 10.8267 14.2692 9.49982C14.2692 8.1729 13.8124 7.05271 12.899 6.13924C11.9855 5.22578 10.8653 4.76904 9.53839 4.76904C8.21148 4.76904 7.09128 5.22578 6.17782 6.13924C5.26437 7.05271 4.80764 8.1729 4.80764 9.49982C4.80764 10.8267 5.26437 11.9469 6.17782 12.8604C7.09128 13.7739 8.21148 14.2306 9.53839 14.2306Z" fill="#484644"/>
</g>
</svg>
